<svg xmlns="http://www.w3.org/2000/svg" xmlns:xlink="http://www.w3.org/1999/xlink" width="90.748" height="88.008" viewBox="0 0 90.748 88.008">
  <defs>
    <linearGradient id="linear-gradient" x1="0.5" x2="0.5" y2="1" gradientUnits="objectBoundingBox">
      <stop offset="0" stop-color="#aed1f0"/>
      <stop offset="1" stop-color="#0068ff"/>
    </linearGradient>
  </defs>
  <g id="icon-s16-2" transform="translate(-4.471 93.01) rotate(-90)">
    <path id="路径_15933" data-name="路径 15933" d="M55.58,72.03c-.15.99-.32,2.84-.73,4.66-1.17,5.16-4.09,9.71-8.29,13.84-1.55,1.52-1.25,3.13.53,4.12a4.293,4.293,0,0,0,5.22-.78c8.97-8.83,12.3-18.72,9.57-29.73-1.65-6.65-6.1-12.19-11.41-17.51-7.3-7.32-9.5-15.65-7.06-24.65A28.371,28.371,0,0,1,51.35,9.27c1.62-1.59,1.42-3.15-.26-4.17a4.525,4.525,0,0,0-5.41.71C38.4,12.88,34.79,20.9,35.24,29.89c.42,8.22,4.27,15.47,11.08,21.85C52.37,57.39,55.41,63.89,55.58,72.03ZM76.65,94.06a4.606,4.606,0,0,0,5.46.08c.12-.09.23-.18.34-.28Q95.5,81.3,92.41,65.45c-1.4-7.09-5.94-13.03-11.58-18.69-8.08-8.09-10.06-17.23-6.44-27.02A29.574,29.574,0,0,1,81.65,9.17c1.54-1.52,1.24-3.22-.45-4.15a4.4,4.4,0,0,0-5.26.77Q62.47,18.87,66.27,35.23c1.49,6.38,5.55,11.82,10.67,16.97,10.29,10.32,11.63,21.47,4.19,33.13A56.257,56.257,0,0,1,76.3,91a2.076,2.076,0,0,0,.11,2.85A2.574,2.574,0,0,0,76.65,94.06ZM19.54,95.22a8.578,8.578,0,0,0,2.35-1.2c9.47-9.14,12.68-19.42,9.52-30.82-1.76-6.37-6.25-11.63-11.33-16.75-6.86-6.93-9.07-14.85-7.16-23.4,1.14-5.1,3.98-9.64,8.16-13.73,1.71-1.67,1.51-3.25-.26-4.27a4.433,4.433,0,0,0-5.39.81C8.95,12.12,5.38,19.22,5.03,27.18c-.4,9.15,3.49,17.18,10.89,24.39,10.83,10.55,12.43,21.95,4.65,33.99-1.24,1.91-3.12,3.57-4.59,5.4C14.44,92.86,16.09,95.15,19.54,95.22Z" fill="url(#linear-gradient)"/>
  </g>
</svg>
