<svg xmlns="http://www.w3.org/2000/svg" xmlns:xlink="http://www.w3.org/1999/xlink" width="150" height="102" viewBox="0 0 150 102">
  <defs>
    <clipPath id="clip-path">
      <rect id="矩形_1" data-name="矩形 1" width="150" height="102" transform="translate(778.5 466.5)" fill="#fff" stroke="#707070" stroke-width="1"/>
    </clipPath>
    <linearGradient id="linear-gradient" x1="1" y1="1" x2="0.056" y2="0.152" gradientUnits="objectBoundingBox">
      <stop offset="0" stop-color="#31ffff"/>
      <stop offset="1" stop-color="#0c9d65"/>
    </linearGradient>
  </defs>
  <g id="icon-s14-1" transform="translate(-778.5 -466.5)" clip-path="url(#clip-path)">
    <g id="icon-s14-1-2" data-name="icon-s14-1" transform="translate(775.68 447.83)">
      <g id="组_46951" data-name="组 46951" transform="translate(10.32 21.17)">
        <path id="路径_15921" data-name="路径 15921" d="M13.08,73.75a2.759,2.759,0,0,1-2.76-2.76V41.64a2.76,2.76,0,1,1,5.52,0V70.99a2.77,2.77,0,0,1-2.76,2.76Z" transform="translate(-10.32 -8.712)" fill="url(#linear-gradient)"/>
        <path id="路径_15922" data-name="路径 15922" d="M22.47,92.523a2.759,2.759,0,0,1-2.76-2.76V33.84a2.76,2.76,0,1,1,5.52,0V89.781a2.766,2.766,0,0,1-2.759,2.742Z" transform="translate(-3.715 -14.199)" fill="url(#linear-gradient)"/>
        <path id="路径_15923" data-name="路径 15923" d="M50.85,73.75a2.759,2.759,0,0,1-2.76-2.76V41.64a2.76,2.76,0,1,1,5.52,0V70.99a2.77,2.77,0,0,1-2.759,2.76Z" transform="translate(16.249 -8.712)" fill="url(#linear-gradient)"/>
        <path id="路径_15924" data-name="路径 15924" d="M41.47,92.523a2.759,2.759,0,0,1-2.76-2.76V33.84a2.76,2.76,0,1,1,5.52,0V89.781a2.766,2.766,0,0,1-2.759,2.742Z" transform="translate(9.651 -14.199)" fill="url(#linear-gradient)"/>
        <path id="路径_15925" data-name="路径 15925" d="M31.86,116.376a2.759,2.759,0,0,1-2.76-2.76V23.93a2.76,2.76,0,1,1,5.519,0v89.686a2.781,2.781,0,0,1-2.759,2.76Z" transform="translate(2.891 -21.17)" fill="url(#linear-gradient)"/>
        <path id="路径_15926" data-name="路径 15926" d="M60.14,56.591c-1.516,0-2.76-.509-2.76-1.146V32.226c0-.629,1.226-1.146,2.76-1.146s2.76.509,2.76,1.146V55.452C62.9,56.082,61.656,56.591,60.14,56.591Z" transform="translate(22.937 3.92)" fill="url(#linear-gradient)"/>
        <path id="路径_15927" data-name="路径 15927" d="M88.52,56.46c-1.516,0-2.76-.618-2.76-1.391v-14.8c0-.764,1.226-1.391,2.76-1.391,1.516,0,2.76.618,2.76,1.391v14.8C91.279,55.833,90.053,56.46,88.52,56.46Z" transform="translate(42.901 0.12)" fill="url(#linear-gradient)"/>
        <path id="路径_15928" data-name="路径 15928" d="M79.14,71.6c-1.516,0-2.76-.809-2.76-1.82V32.9c0-1,1.226-1.82,2.76-1.82,1.516,0,2.76.809,2.76,1.82V69.789C81.882,70.789,80.656,71.6,79.14,71.6Z" transform="translate(36.303 -4.08)" fill="url(#linear-gradient)"/>
        <path id="路径_15929" data-name="路径 15929" d="M69.53,79.354c-1.516,0-2.76-.75-2.76-1.686V22.856c0-.927,1.226-1.686,2.76-1.686,1.516,0,2.76.75,2.76,1.686V77.667C72.272,78.594,71.046,79.354,69.53,79.354Z" transform="translate(29.543 -2.17)" fill="url(#linear-gradient)"/>
      </g>
    </g>
  </g>
</svg>
