<svg xmlns="http://www.w3.org/2000/svg" xmlns:xlink="http://www.w3.org/1999/xlink" width="150" height="102" viewBox="0 0 150 102">
  <defs>
    <clipPath id="clip-path">
      <rect id="矩形_3" data-name="矩形 3" width="150" height="102" transform="translate(1022.5 469.5)" fill="#fff" stroke="#707070" stroke-width="1"/>
    </clipPath>
    <linearGradient id="linear-gradient" x1="1" y1="1" x2="0.056" y2="0.152" gradientUnits="objectBoundingBox">
      <stop offset="0" stop-color="#31ffff"/>
      <stop offset="1" stop-color="#0c9d65"/>
    </linearGradient>
  </defs>
  <g id="icon-s14-2" transform="translate(-1022.5 -469.5)" clip-path="url(#clip-path)">
    <path id="icon-s14-3" d="M-11018.5,90.466c-19.1,0-37.054-1.2-50.559-3.368a82.023,82.023,0,0,1-15.324-3.656c-3.728-1.418-5.618-2.924-5.618-4.476,0-2.973,7.03-5.794,19.8-7.942,12.722-2.141,29.834-3.4,48.185-3.542v-5.3a29.786,29.786,0,0,1-18.484-9.809,29.752,29.752,0,0,1-5.5-9.015,29.679,29.679,0,0,1-2-10.756,3.85,3.85,0,0,1,3.845-3.849,3.852,3.852,0,0,1,3.85,3.849,21.967,21.967,0,0,0,1.738,8.613,22.057,22.057,0,0,0,4.744,7.033,22.049,22.049,0,0,0,7.031,4.742,22,22,0,0,0,8.614,1.739,22,22,0,0,0,15.527-6.361,22.017,22.017,0,0,0,4.762-6.916,21.973,21.973,0,0,0,1.837-8.486V32.6a3.851,3.851,0,0,1,3.848-3.849,3.85,3.85,0,0,1,3.847,3.849,29.652,29.652,0,0,1-2,10.755,29.759,29.759,0,0,1-5.5,9.014,29.786,29.786,0,0,1-18.482,9.808V67.49c37.753.35,67.326,5.392,67.326,11.478,0,1.553-1.89,3.059-5.618,4.476a81.988,81.988,0,0,1-15.322,3.656C-10981.4,89.27-10999.4,90.466-11018.5,90.466Zm-3.275-18.985h0a342.229,342.229,0,0,0-43.408,2.814,108.853,108.853,0,0,0-15.069,3.031,29.623,29.623,0,0,0-4.436,1.639,29.205,29.205,0,0,0,4.436,1.642,108.888,108.888,0,0,0,15.071,3.031,348.735,348.735,0,0,0,46.682,2.828,348.705,348.705,0,0,0,46.681-2.828,108.685,108.685,0,0,0,15.072-3.031,29,29,0,0,0,4.438-1.642,29.361,29.361,0,0,0-4.437-1.639,108.662,108.662,0,0,0-15.071-3.031,341.352,341.352,0,0,0-42.755-2.811,3.873,3.873,0,0,1-3.6,2.483,3.869,3.869,0,0,1-3.6-2.485Zm3.6-23.489a15.292,15.292,0,0,1-10.885-4.508,15.288,15.288,0,0,1-4.508-10.886V12.4a15.286,15.286,0,0,1,4.507-10.886A15.288,15.288,0,0,1-11018.2-3a15.291,15.291,0,0,1,10.887,4.508,15.3,15.3,0,0,1,4.508,10.886V32.6a15.289,15.289,0,0,1-4.511,10.886,15.3,15.3,0,0,1-10.887,4.5Zm-10.643-22.25h0l-.562,1.718a5.083,5.083,0,0,0,1.517.676,7.247,7.247,0,0,0,1.912.237,5.5,5.5,0,0,0,2.33-.456,3.393,3.393,0,0,0,1.512-1.311,3.786,3.786,0,0,0,.526-2.021,3.456,3.456,0,0,0-.509-1.918,3.11,3.11,0,0,0-1.391-1.161,4.957,4.957,0,0,0-1.988-.381,6.867,6.867,0,0,0-1.41.156l.212-2.619h4.306l.155-1.756h-6.108l-.432,6.2a5.666,5.666,0,0,1,1.11-.289,7.746,7.746,0,0,1,1.319-.117,2.9,2.9,0,0,1,1.809.487,1.719,1.719,0,0,1,.631,1.442,1.99,1.99,0,0,1-.562,1.481,2.211,2.211,0,0,1-1.618.551,4.374,4.374,0,0,1-1.479-.259,5.192,5.192,0,0,1-1.28-.662Zm18.681-4.375c.752,0,1.133.464,1.133,1.38v5.469h2.24V22.8a3.6,3.6,0,0,0-.678-2.435,2.346,2.346,0,0,0-1.83-.76,3.1,3.1,0,0,0-1.625.431,6.2,6.2,0,0,0-1.341,1.116,2.371,2.371,0,0,0-2.284-1.547,2.958,2.958,0,0,0-1.529.423,6.665,6.665,0,0,0-1.335,1.055c-.009-.111-.023-.345-.057-.676-.026-.288-.052-.5-.078-.637h-2.124c.03.7.045,1.448.045,2.213v6.24h2.243v-5.8a3.54,3.54,0,0,1,.92-.726,2.2,2.2,0,0,1,1.081-.32,1.027,1.027,0,0,1,.775.3,1.389,1.389,0,0,1,.295.985v5.561h2.212V22.4a4.094,4.094,0,0,1,.937-.749,2,2,0,0,1,1.039-.284Z" transform="translate(12116.001 476)" fill="url(#linear-gradient)"/>
  </g>
</svg>
