<svg xmlns="http://www.w3.org/2000/svg" width="21" height="36" viewBox="0 0 21 36">
  <g id="手机协同_hover" transform="translate(1549 4670)">
    <path id="联合_11" data-name="联合 11" d="M4,36a4,4,0,0,1-4-4V4A4,4,0,0,1,4,0H16a4,4,0,0,1,4,4V5h1v8H20V32a4,4,0,0,1-4,4ZM2,4V32a2,2,0,0,0,2,2H16a2,2,0,0,0,2-2V4a2,2,0,0,0-2-2H4A2,2,0,0,0,2,4Z" transform="translate(-1549 -4670)"/>
    <g id="矩形_14840" data-name="矩形 14840" transform="translate(-1545 -4665)" fill="#686868" stroke="#707070" stroke-width="1">
      <rect width="12" height="26" stroke="none"/>
      <rect x="0.5" y="0.5" width="11" height="25" fill="none"/>
    </g>
  </g>
</svg>
