<svg xmlns="http://www.w3.org/2000/svg" width="38" height="27.866" viewBox="0 0 38 27.866">
  <g id="icon-s8-3" transform="translate(-0.75 -3.75)">
    <path id="矩形" d="M6.5,6.25h23.06a3.673,3.673,0,0,1,1.952.338,2.3,2.3,0,0,1,.958.958A3.673,3.673,0,0,1,32.806,9.5V22.425a3.673,3.673,0,0,1-.338,1.952,2.3,2.3,0,0,1-.958.958,3.673,3.673,0,0,1-1.952.338H6.5a3.673,3.673,0,0,1-1.952-.338,2.3,2.3,0,0,1-.958-.958,3.673,3.673,0,0,1-.338-1.952V9.5a3.673,3.673,0,0,1,.338-1.952,2.3,2.3,0,0,1,.958-.958A3.673,3.673,0,0,1,6.5,6.25Z" transform="translate(1.722 1.722)" fill-rule="evenodd" opacity="0.6"/>
    <path id="矩形-2" data-name="矩形" d="M8.328,3.75H31.172c2.635,0,3.59.274,4.554.79A5.371,5.371,0,0,1,37.96,6.774l.172.342a9.423,9.423,0,0,1,.618,4.211V24.039c0,2.635-.274,3.59-.79,4.554a5.371,5.371,0,0,1-2.234,2.234L35.384,31a9.424,9.424,0,0,1-4.211.618H8.328c-2.635,0-3.59-.274-4.554-.79A5.371,5.371,0,0,1,1.54,28.593l-.172-.342A9.424,9.424,0,0,1,.75,24.039V11.328c0-2.635.274-3.59.79-4.554A5.371,5.371,0,0,1,3.774,4.54l.342-.172A9.423,9.423,0,0,1,8.328,3.75Zm0,2.533c-2.02,0-2.681.128-3.359.49a2.839,2.839,0,0,0-1.2,1.2l-.133.273a6.808,6.808,0,0,0-.356,2.7l0,13.1c0,2.02.128,2.681.49,3.359a2.839,2.839,0,0,0,1.2,1.2l.273.133a6.808,6.808,0,0,0,2.7.356l.386,0H31.172l.739-.007a5.239,5.239,0,0,0,2.62-.483,2.839,2.839,0,0,0,1.2-1.2l.133-.273a6.808,6.808,0,0,0,.356-2.7l0-.386V11.328l-.007-.739a5.239,5.239,0,0,0-.483-2.62,2.839,2.839,0,0,0-1.2-1.2l-.273-.133a6.808,6.808,0,0,0-2.7-.356Z" transform="translate(0 0)"/>
  </g>
</svg>
