<svg xmlns="http://www.w3.org/2000/svg" xmlns:xlink="http://www.w3.org/1999/xlink" width="607" height="42" viewBox="0 0 607 42">
  <defs>
    <clipPath id="clip-path">
      <rect id="矩形_1" data-name="矩形 1" width="607" height="42" transform="translate(790 427)" fill="#fff" stroke="#707070" stroke-width="1"/>
    </clipPath>
  </defs>
  <g id="slogan" transform="translate(-790 -427)" clip-path="url(#clip-path)">
    <g id="slogan-2" data-name="slogan" transform="translate(620 255.911)">
      <g id="未标题-1" transform="translate(171 172.089)">
        <g id="组_3695" data-name="组 3695" transform="translate(0 2.705)">
          <path id="路径_2204" data-name="路径 2204" d="M47.371,36.99H30.287V21.9H22.6V59.341h7.687V44.108H47.371V59.341h7.687V21.9H47.371Z" transform="translate(-22.6 -21.9)"/>
          <path id="路径_2205" data-name="路径 2205" d="M77.428,43.4c0,6.122-2.99,9.4-8.542,9.4s-8.542-3.274-8.542-9.538V21.9H52.8V43.254c0,10.535,5.837,16.514,16.087,16.514s16.229-6.121,16.229-16.941V21.9H77.571V43.4Z" transform="translate(-9.807 -21.9)"/>
          <path id="路径_2206" data-name="路径 2206" d="M143.476,47.667,134.935,21.9h-6.121l-8.542,25.767L112.015,21.9H103.9L117,59.341h6.264L131.8,34.712l8.542,24.628h6.264l13.1-37.441h-7.972Z" transform="translate(11.839 -21.9)"/>
          <path id="路径_2207" data-name="路径 2207" d="M154.8,43.254h13.809V36.421H154.8V28.733h20.073V21.9H147.4V59.341h28.187V52.507H154.8Z" transform="translate(30.265 -21.9)"/>
          <rect id="矩形_1364" data-name="矩形 1364" width="7.545" height="37.441" transform="translate(214.964)"/>
          <path id="路径_2208" data-name="路径 2208" d="M106.43,51.511l3.417,7.83h7.972L101.3,21.9H94.614L78.1,59.341h7.687l3.417-7.83ZM97.746,31.438,103.44,44.82H91.909Z" transform="translate(0.91 -21.9)"/>
        </g>
        <g id="组_3696" data-name="组 3696" transform="translate(245.856)">
          <path id="路径_2209" data-name="路径 2209" d="M201.706,34.428c-.427-1-.854-2.278-1.281-3.559-.427-1.424-.854-2.562-1.139-3.559,0,1,.142,2.278.142,4.128,0,1.708.142,3.417.142,4.983V59.2H195.3V21.9h6.122l9.4,23.347a79.482,79.482,0,0,1,2.99,8.4,71.186,71.186,0,0,1,3.132-8.257l9.68-23.489H232.6V59.2h-4.556V36.421c0-2.135.142-5.125.285-9.111a82.7,82.7,0,0,1-2.847,7.83L215.515,59.2h-3.7Z" transform="translate(-195.3 -19.195)"/>
          <path id="路径_2210" data-name="路径 2210" d="M243.41,56.445q-.214-1.281-.427-3.844a11.984,11.984,0,0,1-3.844,3.132,11.084,11.084,0,0,1-5.267,1.281,7.724,7.724,0,0,1-4.128-1,6.537,6.537,0,0,1-2.847-2.7,8.787,8.787,0,0,1-1-4.413,8,8,0,0,1,2.847-6.406c1.851-1.566,4.983-2.42,9.253-2.42a31.124,31.124,0,0,1,5.125.427V39.79q0-4.271-1.708-5.979a6.349,6.349,0,0,0-4.7-1.708,14.4,14.4,0,0,0-4.128.569,24.1,24.1,0,0,0-3.844,1.424l-.854-3.559a24.642,24.642,0,0,1,3.986-1.424,22.531,22.531,0,0,1,5.41-.712,12.174,12.174,0,0,1,5.41,1.139,7.519,7.519,0,0,1,3.559,3.7,16.319,16.319,0,0,1,1.281,7.118V51.32c0,1.139,0,2.847.142,5.267H243.41Zm-3.986-4.271a11.742,11.742,0,0,0,3.559-2.7V43.49c-1.708-.142-3.132-.285-4.555-.285-2.99,0-4.983.427-6.122,1.424a4.967,4.967,0,0,0-1.708,3.986,4.737,4.737,0,0,0,1.281,3.559,5.076,5.076,0,0,0,3.274,1.139,10.651,10.651,0,0,0,4.271-1.139Z" transform="translate(-182.338 -16.442)"/>
          <path id="路径_2211" data-name="路径 2211" d="M249.51,57.012c-1.281-1.281-1.851-3.559-1.851-6.691v-15.8H244.1l.569-3.274,2.99-.427.285-6.406,3.986-.712V30.82h7.97l-.569,3.7h-7.26V49.752a6.092,6.092,0,0,0,1,3.986,3.781,3.781,0,0,0,3.132,1.281,11.837,11.837,0,0,0,3.844-.854l.854,3.274a13.7,13.7,0,0,1-2.562,1,12.135,12.135,0,0,1-3.274.427,6.955,6.955,0,0,1-5.555-1.854Z" transform="translate(-174.628 -18.433)"/>
          <path id="路径_2212" data-name="路径 2212" d="M279.435,42.821h-17.8c0,3.417.854,5.979,2.278,7.687s3.559,2.562,6.406,2.562a17.678,17.678,0,0,0,7.545-1.708l1,3.417a13.91,13.91,0,0,1-4.271,1.566,19.917,19.917,0,0,1-5.267.569,12.808,12.808,0,0,1-6.833-1.708,10.925,10.925,0,0,1-4.271-4.84,17.417,17.417,0,0,1-1.424-7.545,18.769,18.769,0,0,1,1.424-7.83,12,12,0,0,1,4.129-4.983,11,11,0,0,1,6.121-1.708,9.908,9.908,0,0,1,5.979,1.708,10.882,10.882,0,0,1,3.559,4.7,18.122,18.122,0,0,1,1.139,6.264v1.851Zm-4.556-3.274a9.981,9.981,0,0,0-1.851-5.694A5.51,5.51,0,0,0,268.616,32a5.624,5.624,0,0,0-4.413,1.993,10.013,10.013,0,0,0-2.278,5.694H274.88Z" transform="translate(-169.249 -16.484)"/>
          <path id="路径_2213" data-name="路径 2213" d="M296.076,40.692a9.381,9.381,0,0,1,2.989,3.274,10.4,10.4,0,0,1,1.139,4.7,9.523,9.523,0,0,1-5.694,9.111,16.031,16.031,0,0,1-6.691,1.281H277V21.9h9.965c3.7,0,6.406.712,8.257,2.278a7.718,7.718,0,0,1,2.847,6.264,8.479,8.479,0,0,1-1.708,5.41,9.408,9.408,0,0,1-4.556,3.132,11.235,11.235,0,0,1,4.271,1.708Zm-14.52-3.132h4.556a8.476,8.476,0,0,0,3.844-.854,6.032,6.032,0,0,0,2.563-2.42,6.765,6.765,0,0,0,.854-3.417,4.259,4.259,0,0,0-1.851-3.844,8.985,8.985,0,0,0-5.267-1.281h-4.84V37.56Zm11.958,16.087c1.423-1.139,1.993-2.847,1.993-5.125a6.61,6.61,0,0,0-2.278-5.41c-1.566-1.281-3.7-1.851-6.691-1.851h-4.983V55.355h5.552q4.271,0,6.407-1.709Z" transform="translate(-160.692 -19.195)"/>
          <path id="路径_2214" data-name="路径 2214" d="M301.879,55.348a12.158,12.158,0,0,1-4.413-4.84,17.836,17.836,0,0,1-1.566-7.545,18.035,18.035,0,0,1,1.566-7.687,12.882,12.882,0,0,1,4.413-5.125,12.567,12.567,0,0,1,6.548-1.851,11.974,11.974,0,0,1,6.406,1.708,12.586,12.586,0,0,1,4.413,4.983,17.837,17.837,0,0,1,1.566,7.545,18.037,18.037,0,0,1-1.566,7.687,11.528,11.528,0,0,1-10.962,6.691,10.757,10.757,0,0,1-6.4-1.566Zm12.385-4.84c1.281-1.851,1.851-4.271,1.851-7.545a14.678,14.678,0,0,0-1.993-7.972,7.156,7.156,0,0,0-11.531-.142c-1.281,1.851-1.851,4.413-1.851,7.687a17.12,17.12,0,0,0,.854,5.694,7.027,7.027,0,0,0,2.7,3.559,6.918,6.918,0,0,0,4.271,1.281,5.978,5.978,0,0,0,5.7-2.562Z" transform="translate(-152.686 -16.484)"/>
          <path id="路径_2215" data-name="路径 2215" d="M321.779,55.348a12.158,12.158,0,0,1-4.413-4.84,17.837,17.837,0,0,1-1.566-7.545,18.038,18.038,0,0,1,1.566-7.687,12.882,12.882,0,0,1,4.413-5.125,12.567,12.567,0,0,1,6.549-1.851,11.973,11.973,0,0,1,6.406,1.708,12.585,12.585,0,0,1,4.413,4.983,17.835,17.835,0,0,1,1.566,7.545,18.036,18.036,0,0,1-1.566,7.687,11.528,11.528,0,0,1-10.962,6.691,10.757,10.757,0,0,1-6.406-1.566Zm12.243-4.84c1.281-1.851,1.851-4.271,1.851-7.545a14.678,14.678,0,0,0-1.993-7.972,7.156,7.156,0,0,0-11.531-.142c-1.281,1.851-1.851,4.413-1.851,7.687a17.12,17.12,0,0,0,.854,5.694,7.026,7.026,0,0,0,2.7,3.559,6.918,6.918,0,0,0,4.271,1.281C330.89,53.213,332.883,52.359,334.022,50.508Z" transform="translate(-144.256 -16.484)"/>
          <path id="路径_2216" data-name="路径 2216" d="M337,20.569,341.556,20V45.34L353.23,32.385h5.27L347.962,43.917,359.493,60h-5.41l-9.111-13.1L341.7,49.753V60H337Z" transform="translate(-135.276 -20)"/>
        </g>
        <g id="组_3697" data-name="组 3697" transform="translate(488.153 2.99)">
          <path id="路径_2217" data-name="路径 2217" d="M377.6,40.322,366.5,22.1h5.41l8.4,14.378L388.99,22.1h5.125l-11.1,17.937,11.958,19.219h-5.552L380.163,43.6l-9.538,15.66H365.5Z" transform="translate(-365.5 -22.1)"/>
        </g>
        <g id="组_3698" data-name="组 3698" transform="translate(535.559 3.132)">
          <path id="路径_2218" data-name="路径 2218" d="M398.942,22.2h9.111c4.413,0,7.83.854,10.108,2.7a9.455,9.455,0,0,1,3.417,7.83A11.147,11.147,0,0,1,419.869,39a10.668,10.668,0,0,1-4.556,4.128,15.059,15.059,0,0,1-6.833,1.424,19.836,19.836,0,0,1-4.983-.569V58.36h-4.7V22.2ZM414.6,38.856a7.316,7.316,0,0,0,2.278-5.837c0-2.42-.712-4.271-2.278-5.41s-3.7-1.708-6.691-1.708H403.64V40.422a23.884,23.884,0,0,0,4.128.427C410.758,40.992,413.036,40.28,414.6,38.856Z" transform="translate(-398.8 -22.2)"/>
          <path id="路径_2219" data-name="路径 2219" d="M418.942,35.76c0-1.566,0-3.7-.142-6.833h4.271c.142.712.142,1.708.285,2.7a17.28,17.28,0,0,1,.142,2.562,27.176,27.176,0,0,1,2.135-2.99,10.615,10.615,0,0,1,2.42-1.993,6.175,6.175,0,0,1,3.274-.712,12.535,12.535,0,0,1,2.42.285l-.712,4.128a8.4,8.4,0,0,0-1.993-.285,6.659,6.659,0,0,0-3.986,1.281,18.2,18.2,0,0,0-3.7,4.128V55.976H418.8V35.76Z" transform="translate(-390.328 -19.531)"/>
          <path id="路径_2220" data-name="路径 2220" d="M436.279,54.837a11.7,11.7,0,0,1-4.413-4.7,14.973,14.973,0,0,1-1.566-7.4,17.837,17.837,0,0,1,1.566-7.545A11.528,11.528,0,0,1,442.828,28.5a12.843,12.843,0,0,1,6.548,1.708,11.221,11.221,0,0,1,4.413,4.84,17.178,17.178,0,0,1,1.566,7.4A15.943,15.943,0,0,1,453.647,50a11.528,11.528,0,0,1-4.556,4.84,12.844,12.844,0,0,1-6.549,1.708,16.47,16.47,0,0,1-6.263-1.711Zm12.528-4.7c1.281-1.708,1.851-4.128,1.851-7.26a13.334,13.334,0,0,0-1.993-7.687,6.41,6.41,0,0,0-5.837-2.847,6.727,6.727,0,0,0-5.837,2.847c-1.281,1.851-1.851,4.413-1.851,7.545a13.345,13.345,0,0,0,1,5.552,7.69,7.69,0,0,0,2.7,3.559,7.356,7.356,0,0,0,4.413,1.281,8.242,8.242,0,0,0,5.554-2.988Z" transform="translate(-385.457 -19.531)"/>
        </g>
      </g>
    </g>
  </g>
</svg>
