<svg xmlns="http://www.w3.org/2000/svg" width="344" height="52.156" viewBox="0 0 344 52.156">
  <g id="huawei_sound_white" data-name="huawei sound_white" transform="translate(1080.82 5656.369)">
    <text id="SOUND" transform="translate(-895.059 -5613.213)" fill="#fff" font-size="40" font-family="Helvetica" letter-spacing="0.03em"><tspan x="0" y="0">SOUND</tspan></text>
    <path id="路径_16089" data-name="路径 16089" d="M18.767,38.624h-13V27.17H0V55.557H5.762V44.027h13v11.53h5.757V27.17H18.767Z" transform="translate(-1080.82 -5668.755)" fill="#fff"/>
    <path id="路径_16090" data-name="路径 16090" d="M78.452,43.4c0,4.614-2.3,7.074-6.453,7.074s-6.491-2.514-6.491-7.253V27.186H59.75V43.4c0,7.982,4.435,12.564,12.172,12.564s12.286-4.647,12.286-12.782V27.17H78.452Z" transform="translate(-1108.058 -5668.755)" fill="#fff"/>
    <path id="路径_16091" data-name="路径 16091" d="M191.323,46.683,184.875,27.16h-4.7l-6.448,19.523-6.268-19.507H161.33l9.892,28.376h4.772l6.453-18.642L188.9,55.553h4.81l9.871-28.376h-5.975Z" transform="translate(-1154.365 -5668.75)" fill="#fff"/>
    <path id="路径_16092" data-name="路径 16092" d="M253.191,43.355h10.48V38.186h-10.48V32.375H268.4V27.2H247.51V55.555h21.439V50.385H253.191Z" transform="translate(-1193.652 -5668.769)" fill="#fff"/>
    <rect id="矩形_14760" data-name="矩形 14760" width="5.681" height="28.349" transform="translate(-917.836 -5641.585)" fill="#fff"/>
    <path id="路径_16093" data-name="路径 16093" d="M131.516,49.632l2.547,5.909h6.04L127.642,27.17h-5.077L110.05,55.541h5.877l2.585-5.909Zm-6.53-15.279,4.353,10.159h-8.706Z" transform="translate(-1130.988 -5668.755)" fill="#fff"/>
    <path id="路径_16094" data-name="路径 16094" d="M612.546,0a7.346,7.346,0,1,0,7.346,7.346A7.346,7.346,0,0,0,612.546,0Zm0,13.571a6.23,6.23,0,1,1,6.23-6.225,6.23,6.23,0,0,1-6.23,6.225Z" transform="translate(-1356.712 -5656.369)" fill="#fff"/>
    <text id="R" transform="translate(-748.339 -5644.791)" fill="#fff" font-size="13" font-family="Helvetica" letter-spacing="0.07em"><tspan x="0" y="0">R</tspan></text>
  </g>
</svg>
