<svg xmlns="http://www.w3.org/2000/svg" xmlns:xlink="http://www.w3.org/1999/xlink" width="134" height="130" viewBox="0 0 134 130">
  <defs>
    <clipPath id="clip-path">
      <rect id="矩形_14769" data-name="矩形 14769" width="134" height="130" transform="translate(-0.245 0.204)"/>
    </clipPath>
  </defs>
  <g id="画板_2" data-name="画板 – 2" transform="translate(0.245 -0.205)" clip-path="url(#clip-path)">
    <g id="组_46894" data-name="组 46894" transform="translate(16.402 13.321)">
      <g id="路径_3646" data-name="路径 3646">
        <path id="路径_16113" data-name="路径 16113" d="M25.582,0H76.745a25.581,25.581,0,0,1,25.579,25.58V76.745a25.581,25.581,0,0,1-25.579,25.579H25.582A25.582,25.582,0,0,1,0,76.743V25.582A25.582,25.582,0,0,1,25.582,0Z" fill="none"/>
        <path id="路径_16114" data-name="路径 16114" d="M25.581,4.494A21.111,21.111,0,0,0,4.494,25.581V76.744A21.111,21.111,0,0,0,25.581,97.831H76.744A21.111,21.111,0,0,0,97.831,76.744V25.581A21.111,21.111,0,0,0,76.744,4.494H25.581m0-4.494H76.744a25.581,25.581,0,0,1,25.581,25.581V76.744a25.581,25.581,0,0,1-25.581,25.581H25.581A25.581,25.581,0,0,1,0,76.744V25.581A25.581,25.581,0,0,1,25.581,0Z" fill="#fff"/>
      </g>
      <g id="曲线组件" transform="translate(17.904 25.581)">
        <path id="路径_3645" data-name="路径 3645" d="M175.78,306.015a2.813,2.813,0,0,1-2.977-2.977C173.4,294.7,175.78,256,190.666,256c8.336,0,11.909,10.718,16.673,22.02,4.168,10.111,8.336,22.02,15.482,22.02,8.336,0,10.718-10.111,12.5-20.841v-1.786a3.036,3.036,0,0,1,5.954,1.191v1.786c-1.191,7.741-2.977,26.2-17.863,26.2-10.718,0-16.077-13.7-20.841-26.2-4.168-8.932-7.741-18.459-11.909-18.459-6.55,0-11.314,23.818-11.909,41.084a2.813,2.813,0,0,1-2.977,3Z" transform="translate(-172.798 -256)" fill="#fff"/>
      </g>
    </g>
  </g>
</svg>
