<svg xmlns="http://www.w3.org/2000/svg" xmlns:xlink="http://www.w3.org/1999/xlink" width="133" height="130" viewBox="0 0 133 130">
  <defs>
    <clipPath id="clip-path">
      <rect id="矩形_14768" data-name="矩形 14768" width="133" height="130" transform="translate(0 0.204)"/>
    </clipPath>
  </defs>
  <g id="画板_1" data-name="画板 – 1" transform="translate(0 -0.205)" clip-path="url(#clip-path)">
    <g id="组_46893" data-name="组 46893" transform="translate(15.729 13.321)">
      <g id="路径_3662" data-name="路径 3662">
        <path id="路径_16111" data-name="路径 16111" d="M25.582,0H76.745a25.581,25.581,0,0,1,25.579,25.58V76.745a25.581,25.581,0,0,1-25.579,25.579H25.582A25.582,25.582,0,0,1,0,76.743V25.582A25.582,25.582,0,0,1,25.582,0Z" fill="none"/>
        <path id="路径_16112" data-name="路径 16112" d="M25.581,4.494A21.111,21.111,0,0,0,4.494,25.581V76.744A21.111,21.111,0,0,0,25.581,97.831H76.744A21.111,21.111,0,0,0,97.831,76.744V25.581A21.111,21.111,0,0,0,76.744,4.494H25.581m0-4.494H76.744a25.581,25.581,0,0,1,25.581,25.581V76.744a25.581,25.581,0,0,1-25.581,25.581H25.581A25.581,25.581,0,0,1,0,76.744V25.581A25.581,25.581,0,0,1,25.581,0Z" fill="#fff"/>
      </g>
      <g id="组_34790" data-name="组 34790" transform="translate(65.641 13.48) rotate(90)">
        <path id="尺子_1_" data-name="尺子 (1)" d="M77.183,23.47V6.936H74.155V23.47H64.825V0H61.8V23.47H52.469V6.936H49.438V23.47H40.108V0H37.077V23.47H27.75V6.939H24.719V23.47H15.39V0H12.358V23.47H3.029V6.936H0V23.467Z" transform="translate(0)" fill="#fff"/>
        <path id="路径_3673" data-name="路径 3673" d="M0,4.063,77.094,4V0L0,.054Z" transform="translate(0.009 23.38)" fill="#fff"/>
      </g>
    </g>
  </g>
</svg>
