<svg xmlns="http://www.w3.org/2000/svg" width="646.918" height="84.602" viewBox="0 0 646.918 84.602">
  <g id="组_46769" data-name="组 46769" transform="translate(-636.5 -18013.168)">
    <path id="联合_1" data-name="联合 1" d="M410.856,75.211q-6.406-8.087-6.4-20.445,0-11.156,5.477-19.1,7.036-10.187,20.807-10.185,14.4,0,21.324,9.362,5.406,7.3,5.406,18.688,0,12.316-6.183,20.481Q444.027,83.6,430.59,83.6,418.036,83.6,410.856,75.211Zm6.554-37.236q-5.333,5.854-5.335,17.278,0,9.138,4.576,15.411t14.827,6.273q9.739,0,14.085-7.065a30.267,30.267,0,0,0,4.35-16.228q0-9.7-5.017-15.617t-13.714-5.915A17.754,17.754,0,0,0,417.411,37.975ZM358.086,78.358q-5.737-5.208-5.627-14.118h6.921a15.132,15.132,0,0,0,2.186,7.6q3.664,5.461,12.919,5.468a22.6,22.6,0,0,0,7.552-1.2q6.592-2.318,6.59-8.315,0-4.487-2.774-6.4a27.71,27.71,0,0,0-8.811-3.255l-7.367-1.69q-7.221-1.642-10.22-3.628-5.181-3.451-5.181-10.3a15.937,15.937,0,0,1,5.07-12.17q5.075-4.756,14.363-4.757a24.743,24.743,0,0,1,14.531,4.177q5.982,4.177,5.98,13.347H387.3a13.88,13.88,0,0,0-2.372-6.776q-3.365-4.308-11.439-4.307-6.512,0-9.368,2.771a8.726,8.726,0,0,0-2.849,6.44,6.3,6.3,0,0,0,3.33,5.918q2.186,1.2,9.884,2.993l7.628,1.761a23.188,23.188,0,0,1,8.515,3.483q5.181,3.856,5.185,11.2,0,9.138-6.572,13.071A29.216,29.216,0,0,1,373.969,83.6Q363.826,83.6,358.086,78.358Zm113.5-4.867q-2.7-5.469-2.7-15.617V26.981h7.477v34a20.193,20.193,0,0,0,2.221,9.958q3.3,6,11.108,5.995,9.368,0,12.733-6.483a20.8,20.8,0,0,0,1.815-9.47v-34h7.477V57.875q0,10.145-2.7,15.617-4.962,9.958-18.735,9.957T471.585,73.491ZM61.042,58.935V28.111H71.854V58.562c0,9.006,4.328,13.821,12.186,13.821,7.813,0,12.115-4.679,12.115-13.448V28.079h10.816V58.491c0,15.448-8.409,24.306-23.072,24.306C69.372,82.8,61.042,74.1,61.042,58.935ZM216.6,81.992l-12.119-35.4-12.119,35.4h-8.957L164.833,28.1h11.514l11.77,37.05,12.1-37.08h8.824l12.106,37.08,11.8-37.05h11.214L225.632,81.992Zm-181.369,0V60.1H10.812v21.9H0V28.079H10.812V49.83H35.236V28.079H46.048V81.992Zm547.22,0V26.981h22.026q11.216,0,17.4,8.053Q627.4,42.3,627.4,53.644a37.436,37.436,0,0,1-3.259,15.84q-5.737,12.5-19.734,12.5Zm7.4-6.367H603a20.163,20.163,0,0,0,6.143-.785,13.539,13.539,0,0,0,7.036-5.615,23.206,23.206,0,0,0,3.149-8.537,33.292,33.292,0,0,0,.552-5.768q0-10.224-4.015-15.875t-12.941-5.655H589.858Zm-29.7,6.367L532.278,37.47V81.989h-7.036V26.981h8.7l27.471,44.557V26.981h7V81.989Zm-402.628-.027L152.74,70.735H128.347l-4.854,11.227H112.452l23.483-53.883h9.531l23.395,53.883ZM132.366,61.015h16.355l-8.2-19.294ZM252.883,81.957V28.116h39.224v9.818H263.553V48.972h19.672v9.819H263.553V72.138h29.583v9.819Zm53.15-.04V28.074H316.7V81.918Zm312.3-67.967a13.792,13.792,0,1,1,27.582,0,13.792,13.792,0,1,1-27.582,0Zm2.1,0a11.762,11.762,0,0,0,11.7,11.828,11.58,11.58,0,0,0,7.944-3.149h-1.862a2.126,2.126,0,0,1-.19-.595,12.015,12.015,0,0,1-.124-1.411l-.141-2.988a2.516,2.516,0,0,0-1.29-2.35,5.3,5.3,0,0,0-2.155-.33h-5.459V22.63h-2.394V4.734h8.188a8.059,8.059,0,0,1,3.335.6,4.226,4.226,0,0,1,2.5,4.224,4.82,4.82,0,0,1-.658,2.637,4.717,4.717,0,0,1-1.837,1.638,3.684,3.684,0,0,1,1.564,1.123,4.064,4.064,0,0,1,.583,2.254l.084,2.4a7.362,7.362,0,0,0,.168,1.524,1.944,1.944,0,0,0,.379.8,11.757,11.757,0,1,0-20.325-7.981Zm8.418-1.015h5.543a4.6,4.6,0,0,0,2.668-.682,2.794,2.794,0,0,0,.98-2.461,2.645,2.645,0,0,0-1.374-2.606,4.417,4.417,0,0,0-1.961-.366h-5.856Z" transform="translate(637 18013.668)" stroke="rgba(0,0,0,0)" stroke-miterlimit="10" stroke-width="1"/>
  </g>
</svg>
