<svg xmlns="http://www.w3.org/2000/svg" width="38" height="25.334" viewBox="0 0 38 25.334">
  <g id="Filled_ic_device_smartscreen_filled" data-name="Filled/ic_device_smartscreen_filled" transform="translate(0 -4)" opacity="0.398">
    <path id="形状结合" d="M35.97,4a2.3,2.3,0,0,1,1.22.211,1.439,1.439,0,0,1,.6.6A2.3,2.3,0,0,1,38,6.03V25.72a2.3,2.3,0,0,1-.211,1.22,1.439,1.439,0,0,1-.6.6,2.3,2.3,0,0,1-1.22.211H34.042v.792a.792.792,0,0,1-.792.792H4.75a.792.792,0,0,1-.792-.792V27.75H2.03a2.3,2.3,0,0,1-1.22-.211,1.439,1.439,0,0,1-.6-.6A2.142,2.142,0,0,1,0,25.828V6.03A2.3,2.3,0,0,1,.211,4.81a1.439,1.439,0,0,1,.6-.6A2.142,2.142,0,0,1,1.922,4Zm-.345,2.375H2.375v19h33.25Z" transform="translate(0)"/>
    <path id="矩形" d="M2.5,6.566,32.558,6.5l.026,15.833L2.5,22.23Z" transform="translate(1.458 1.458)" fill-rule="evenodd" opacity="0.6"/>
  </g>
</svg>
