<svg xmlns="http://www.w3.org/2000/svg" xmlns:xlink="http://www.w3.org/1999/xlink" width="120" height="120" viewBox="0 0 120 120">
  <defs>
    <clipPath id="clip-path">
      <rect id="矩形_3" data-name="矩形 3" width="120" height="120" transform="translate(1357 413)" fill="#fff" stroke="#707070" stroke-width="1"/>
    </clipPath>
  </defs>
  <g id="蒙版组_3" data-name="蒙版组 3" transform="translate(-1357 -413)" clip-path="url(#clip-path)">
    <g id="_3" data-name="3" transform="translate(1356.5 412.5)">
      <rect id="矩形_1889" data-name="矩形 1889" width="120" height="120" transform="translate(0.5 0.5)" fill="none" stroke="#000" stroke-miterlimit="10" stroke-width="1" opacity="0"/>
      <path id="路径_3359" data-name="路径 3359" d="M90.32,59c0,.43-.06.91-.09,1.42s-.08,1-.13,1.61-.1,1.2-.1,1.82-.11,1.25-.17,1.9-.13,1.32-.21,2-.15,1.36-.23,2-.17,1.39-.26,2.08L88.78,74c-.1.68-.21,1.36-.33,2s-.23,1.31-.36,1.94-.25,1.24-.39,1.83-.28,1.15-.43,1.68" fill="none" stroke="#000" stroke-linecap="round" stroke-miterlimit="10" stroke-width="2"/>
      <path id="路径_3360" data-name="路径 3360" d="M41.58,34.55a27.13,27.13,0,0,1,2.29-1.7c.8-.53,1.62-1,2.46-1.48a23.06,23.06,0,0,1,2.61-1.24,28.63,28.63,0,0,1,2.73-1c.94-.29,1.89-.53,2.86-.73s1.95-.34,2.95-.45a27.691,27.691,0,0,1,3.05-.15,29.189,29.189,0,0,1,3,.15,27.167,27.167,0,0,1,2.87.42,25.651,25.651,0,0,1,2.78.69q1.36.41,2.67.93c.88.36,1.73.75,2.55,1.18s1.64.9,2.42,1.4A22.48,22.48,0,0,1,79,34.2c.69.57,1.43,1.17,2.1,1.81s1.32,1.3,1.93,2,1.19,1.42,1.73,2.17a27.482,27.482,0,0,1,1.53,2.33q.72,1.2,1.32,2.46c.4.85.76,1.72,1.08,2.6a27.636,27.636,0,0,1,.84,2.72,28.749,28.749,0,0,1,.59,2.82" fill="none" stroke="#000" stroke-linecap="round" stroke-miterlimit="10" stroke-width="2"/>
      <path id="路径_3361" data-name="路径 3361" d="M30.53,63.59V57.37a29.389,29.389,0,0,1,.68-5.94c.21-.94.47-1.91.77-2.84s.64-1.83,1-2.71a23.938,23.938,0,0,1,1.28-2.59c.47-.84,1-1.65,1.51-2.44a23.449,23.449,0,0,1,1.73-2.27" fill="none" stroke="#000" stroke-linecap="round" stroke-miterlimit="10" stroke-width="2"/>
      <path id="路径_3362" data-name="路径 3362" d="M82.48,67.21c.07-.68.14-1.35.19-2s.11-1.32.16-2,.08-1.28.11-1.89,0-1.22.06-1.8a16.061,16.061,0,0,0,0-1.7" fill="none" stroke="#000" stroke-linecap="round" stroke-miterlimit="10" stroke-width="2"/>
      <path id="路径_3363" data-name="路径 3363" d="M77.76,88c.21-.47.42-1,.62-1.48s.39-1.05.57-1.61.37-1.13.55-1.73.34-1.2.5-1.82.32-1.26.47-1.91.3-1.31.44-2,.27-1.35.39-2,.24-1.36.35-2" fill="none" stroke="#000" stroke-linecap="round" stroke-miterlimit="10" stroke-width="2"/>
      <path id="路径_3364" data-name="路径 3364" d="M66.51,92.83a13.655,13.655,0,0,0,1-1.65c.29-.58.67-1.18,1-1.81s.63-1.28.93-1.94.58-1.36.86-2.07.54-1.42.8-2.16.5-1.49.74-2.25.46-1.53.68-2.31.42-1.56.61-2.36.37-1.58.54-2.38.33-1.6.48-2.4.28-1.6.41-2.4.23-1.58.33-2.37.19-1.56.27-2.32.14-1.53.19-2.27.09-1.48.12-2.2,0-1.41,0-2.09" fill="none" stroke="#000" stroke-linecap="round" stroke-miterlimit="10" stroke-width="2"/>
      <path id="路径_3365" data-name="路径 3365" d="M68,60c0-.75,0-1.48.06-2.19" fill="none" stroke="#000" stroke-linecap="round" stroke-miterlimit="10" stroke-width="2"/>
      <path id="路径_3366" data-name="路径 3366" d="M56.75,93.19a18.715,18.715,0,0,0,1.28-1.58c.41-.58.83-1.14,1.22-1.75S60,88.62,60.39,88s.73-1.33,1.08-2,.68-1.42,1-2.15.63-1.48.93-2.25.57-1.53.84-2.32.53-1.58.77-2.38.47-1.61.69-2.43.42-1.63.6-2.44.36-1.64.52-2.45.3-1.63.43-2.44.24-1.61.33-2.4" fill="none" stroke="#000" stroke-linecap="round" stroke-miterlimit="10" stroke-width="2"/>
      <path id="路径_3367" data-name="路径 3367" d="M60.53,57.85c0,.68,0,1.37-.06,2.08s-.09,1.44-.16,2.18-.16,1.48-.27,2.24-.22,1.52-.36,2.29-.29,1.54-.46,2.32-.36,1.55-.56,2.33-.41,1.55-.64,2.31-.48,1.54-.74,2.3-.54,1.5-.82,2.24-.6,1.46-.91,2.18-.65,1.41-1,2.09-.7,1.34-1.07,2-.75,1.26-1.14,1.86-.8,1.17-1.21,1.72-.85,1.07-1.29,1.56-.89.95-1.35,1.38" fill="none" stroke="#000" stroke-linecap="round" stroke-miterlimit="10" stroke-width="2"/>
      <path id="路径_3368" data-name="路径 3368" d="M48.33,77.75c-.29.63-.6,1.24-.92,1.84s-.66,1.17-1,1.73-.7,1.1-1.07,1.61-.74,1-1.13,1.47-.79.9-1.2,1.31a16.307,16.307,0,0,1-1.26,1.12" fill="none" stroke="#000" stroke-linecap="round" stroke-miterlimit="10" stroke-width="2"/>
      <path id="路径_3369" data-name="路径 3369" d="M53,57.85c0,.59,0,1.2-.06,1.82s-.08,1.27-.15,1.92-.15,1.31-.25,2-.22,1.35-.35,2a19.343,19.343,0,0,1-.4,2.07c-.21.66-.34,1.39-.53,2.08s-.39,1.38-.61,2.06-.45,1.36-.69,2" fill="none" stroke="#000" stroke-linecap="round" stroke-miterlimit="10" stroke-width="2"/>
      <path id="路径_3370" data-name="路径 3370" d="M45.53,57.85a13.955,13.955,0,0,1-.05,1.43c-.05.49-.07,1-.12,1.53s-.12,1-.2,1.6-.17,1.09-.28,1.65-.22,1.12-.35,1.69-.27,1.14-.42,1.71-.32,1.14-.49,1.71-.36,1.13-.56,1.69-.4,1.11-.62,1.65-.44,1.07-.68,1.59-.48,1-.74,1.52a13.31,13.31,0,0,1-.8,1.42c-.28.42-.56.9-.85,1.31s-.6.81-.91,1.18a13.472,13.472,0,0,1-1,1,11.151,11.151,0,0,1-1,.86" fill="none" stroke="#000" stroke-linecap="round" stroke-miterlimit="10" stroke-width="2"/>
      <path id="路径_3371" data-name="路径 3371" d="M37.93,59.77a8.791,8.791,0,0,1-.12,1.1c-.05.38-.1.77-.16,1.16s-.13.81-.2,1.22-.16.82-.25,1.24-.18.84-.28,1.26-.21.84-.33,1.26-.23.82-.36,1.23-.26.8-.4,1.19-.28.77-.43,1.14-.3.73-.46,1.07-.33.66-.5,1a9.79,9.79,0,0,1-.53.86,7.53,7.53,0,0,1-.56.74,5.472,5.472,0,0,1-.59.59" fill="none" stroke="#000" stroke-linecap="round" stroke-miterlimit="10" stroke-width="2"/>
      <path id="路径_3372" data-name="路径 3372" d="M38.14,55.51c.08-.76.19-1.5.34-2.23A21.349,21.349,0,0,1,39,51.12q.33-1.07.75-2.07a16.955,16.955,0,0,1,1-2c.4-.67.72-1.25,1.13-1.85a19.92,19.92,0,0,1,1.29-1.73c.46-.56.94-1.09,1.45-1.6a14.836,14.836,0,0,1,1.6-1.45c.6-.45,1.13-.89,1.73-1.3A19.511,19.511,0,0,1,49.81,38a19.673,19.673,0,0,1,2-1c.68-.29,1.37-.54,2.07-.76a22.025,22.025,0,0,1,2.16-.55c.73-.15,1.48-.26,2.23-.34a22.2,22.2,0,0,1,4.61,0c.76.08,1.5.19,2.23.34a21.329,21.329,0,0,1,2.16.55,20.4,20.4,0,0,1,2.07.76,21,21,0,0,1,2,1c.63.34,1.25.72,1.85,1.12a20.027,20.027,0,0,1,1.73,1.3c.55.46,1.09.94,1.6,1.45a14.834,14.834,0,0,1,1.45,1.6c.45.6.89,1.13,1.3,1.73a20.686,20.686,0,0,1,1.12,1.85c.34.63.66,1.3,1,2a13.981,13.981,0,0,1,.76,2.07,22.024,22.024,0,0,1,.55,2.16c.15.74.26,1.47.34,2.23a22,22,0,0,1,.12,2.3" fill="none" stroke="#000" stroke-linecap="round" stroke-miterlimit="10" stroke-width="2"/>
      <path id="路径_3373" data-name="路径 3373" d="M75.45,56.28c0,.5.08,1,.08,1.53" fill="none" stroke="#000" stroke-linecap="round" stroke-miterlimit="10" stroke-width="2"/>
      <path id="路径_3374" data-name="路径 3374" d="M45.53,57.81a11.269,11.269,0,0,1,.07-1.53,14.45,14.45,0,0,1,.23-1.49,13.807,13.807,0,0,1,.37-1.44c.15-.47.31-.93.5-1.38a12.209,12.209,0,0,1,.64-1.31,14.079,14.079,0,0,1,.75-1.24A13.758,13.758,0,0,1,49,48.27a14,14,0,0,1,1-1.07,13.7,13.7,0,0,1,1.06-1,14,14,0,0,1,1.16-.87q.6-.4,1.23-.75c.43-.23.87-.44,1.31-.63a13.348,13.348,0,0,1,1.38-.5,13.81,13.81,0,0,1,1.44-.37q.705-.129,1.42-.19c.51,0,1-.08,1.54-.08a9.745,9.745,0,0,1,1.53.08,14.451,14.451,0,0,1,1.49.23,13.809,13.809,0,0,1,1.44.37,13.346,13.346,0,0,1,1.38.5c.45.19.88.4,1.31.63a13.962,13.962,0,0,1,3.46,2.62c.33.34.66.7,1,1.07A13.869,13.869,0,0,1,73,49.42a14.081,14.081,0,0,1,.75,1.24,14.37,14.37,0,0,1,.6,1.34" fill="none" stroke="#000" stroke-linecap="round" stroke-miterlimit="10" stroke-width="2"/>
      <path id="路径_3375" data-name="路径 3375" d="M53,57.81v-.76a3.784,3.784,0,0,1,.12-.75q.075-.36.18-.72c.07-.24.16-.46.25-.69a6.54,6.54,0,0,1,.32-.65,6.41,6.41,0,0,1,.38-.62,5.791,5.791,0,0,1,.43-.58c.15-.18.31-.36.48-.53s.35-.33.53-.49l.58-.43c.2-.13.41-.26.62-.37a6.722,6.722,0,0,1,.66-.32c.22-.09.45-.18.68-.25s.48-.14.72-.19.5-.08.75-.11a6.594,6.594,0,0,1,.77,0h.76a3.881,3.881,0,0,1,.75.11c.25.05.48.12.72.19s.46.16.69.25a4.9,4.9,0,0,1,.65.32c.21.12.42.24.62.37l.58.43c.18.16.36.32.53.49s.33.35.48.53.3.38.44.58a6.336,6.336,0,0,1,.37.62c.12.21.22.43.32.65a5.685,5.685,0,0,1,.25.69c.07.23.13.48.18.72s.09.49.12.75a6.424,6.424,0,0,1,0,.76" fill="none" stroke="#000" stroke-linecap="round" stroke-miterlimit="10" stroke-width="2"/>
    </g>
  </g>
</svg>
