<svg xmlns="http://www.w3.org/2000/svg" xmlns:xlink="http://www.w3.org/1999/xlink" width="120" height="120" viewBox="0 0 120 120">
  <defs>
    <clipPath id="clip-path">
      <rect id="矩形_5" data-name="矩形 5" width="120" height="120" transform="translate(1635 547)" fill="#fff" stroke="#707070" stroke-width="1"/>
    </clipPath>
  </defs>
  <g id="蒙版组_5" data-name="蒙版组 5" transform="translate(-1635 -547)" clip-path="url(#clip-path)">
    <g id="_5" data-name="5" transform="translate(1634.5 546.5)">
      <path id="路径_3345" data-name="路径 3345" d="M109.65,76.72,70.56,47.78a9,9,0,0,0-3.89-1.68L24.3,39.18h-.16c-.82,0-1.34.28-1.54.84-.32.9.53,1.6.91,1.91L67.3,76.43l.29.24,1,.78L13,77.65c0,2.21,5,3,9,3l47.2.6,38.41-.5c1,0,1.89-.5,1.89-1.38v-.32a1.48,1.48,0,0,0,.62-.71,1.45,1.45,0,0,0-.47-1.62ZM66.22,79.3a.2.2,0,0,1-.2.2h-3.1a.2.2,0,0,1-.2-.2V78.2a.2.2,0,0,1,.2-.2H66a.2.2,0,0,1,.2.2Zm5.61-2.77h-.25a2.13,2.13,0,0,1-1.14-.26,11.82,11.82,0,0,1-1.59-1.15L26.24,41.52l40.14,6.56a6.8,6.8,0,0,1,3,1.3L107,77.24Z"/>
      <path id="路径_3346" data-name="路径 3346" d="M27.06,72.16l4.19,2.41a.34.34,0,0,0,.5-.23L32.61,70a.51.51,0,0,0-.68-.57L30.44,70v-.08A7.72,7.72,0,0,1,35,58.56a1,1,0,1,0-.54-1.93,10.15,10.15,0,0,0-2.23.94,9.75,9.75,0,0,0-3.66,13.11l-1.45.56a.51.51,0,0,0-.06.92Z"/>
      <path id="路径_3347" data-name="路径 3347" d="M40.33,74.74a.7.7,0,0,0,.79.58,6.62,6.62,0,0,0,1.62-.45,6.76,6.76,0,0,0,3.68-8.69l1-.26a.35.35,0,0,0,.13-.62l-2.68-2a.24.24,0,0,0-.36.12l-1,2.94a.36.36,0,0,0,.42.46l1.08-.27a.13.13,0,0,0,0,.06,5.38,5.38,0,0,1-2.89,7,4.79,4.79,0,0,1-1.28.36.71.71,0,0,0-.51.77Z"/>
      <path id="路径_3348" data-name="路径 3348" d="M56.48,58.3l.58.05,1.87,1.39,1.58.13-1.87-1.39h.58l4.59,3.42h-.58l-2.09-1.55-1.58-.13,2.1,1.55h-.59Z"/>
      <path id="路径_3349" data-name="路径 3349" d="M62.79,60.55,60.16,58.6h.58l2.68,2a4.54,4.54,0,0,0,2.16,1.08c.46,0,.47-.18-.57-1l-2.67-2h.56l2.62,2c1.5,1.11,1.51,1.48.69,1.41a7.07,7.07,0,0,1-3.42-1.54Z"/>
      <path id="路径_3350" data-name="路径 3350" d="M68.75,61.46l-1.28-.1,1,1-.59-.05L64.5,59h.67L71,62.51h-.62ZM68,61l-.76-.47L65.4,59.39h0c.42.38.81.75,1.19,1.11L67,61Z"/>
      <path id="路径_3351" data-name="路径 3351" d="M66.5,59.11h.6L69.84,61l1.67,1.11h0L70.31,61l-1.92-1.74h.51l2.87,1.81,1.72,1.12h0L72.2,61.11l-2-1.75.56.05,3.87,3.35h-.72l-3.05-1.94L69.63,60h0l.89.77,2.06,1.86-.7-.06Z"/>
      <path id="路径_3352" data-name="路径 3352" d="M71.35,59.49l2.18.18.6.45L72.54,60l1.28.95,1.35.11.61.46-1.35-.11,1.49,1.1,1.65.13.61.46L76,62.91Z"/>
      <path id="路径_3353" data-name="路径 3353" d="M74.36,59.74h.58l4.59,3.42L79,63.15Z"/>
      <rect id="矩形_1856" data-name="矩形 1856" width="120" height="120" transform="translate(0.5 0.5)" fill="none" stroke="#000" stroke-miterlimit="10" stroke-width="1" opacity="0"/>
    </g>
  </g>
</svg>
