<svg xmlns="http://www.w3.org/2000/svg" xmlns:xlink="http://www.w3.org/1999/xlink" width="120" height="120" viewBox="0 0 120 120">
  <defs>
    <clipPath id="clip-path">
      <rect id="矩形_1" data-name="矩形 1" width="120" height="120" transform="translate(1121 540)" fill="#fff"/>
    </clipPath>
  </defs>
  <g id="蒙版组_1" data-name="蒙版组 1" transform="translate(-1121 -540)" clip-path="url(#clip-path)">
    <g id="_1" data-name="1" transform="translate(1120.5 539.5)">
      <path id="路径_3324" data-name="路径 3324" d="M24.2,47.8a1,1,0,0,0-1-1h-2a1,1,0,0,0,0,2h2A1,1,0,0,0,24.2,47.8Z"/>
      <path id="路径_3325" data-name="路径 3325" d="M37.91,33.93a1,1,0,0,0,1-1v-2a1,1,0,0,0-2,0v2A1,1,0,0,0,37.91,33.93Z"/>
      <path id="路径_3326" data-name="路径 3326" d="M37.91,61.19a1,1,0,0,0-1,1v2a1,1,0,0,0,2,0v-2a1,1,0,0,0-1-1Z"/>
      <path id="路径_3327" data-name="路径 3327" d="M31.09,35.75a1,1,0,0,0,.37-1.36l-1-1.73a1,1,0,1,0-1.73,1l1,1.73A1,1,0,0,0,31.09,35.75Z"/>
      <path id="路径_3328" data-name="路径 3328" d="M26.1,40.74a1,1,0,0,0-.36-1.36l-1.74-1a1,1,0,0,0-1,1.73l1.74,1a1,1,0,0,0,1.36-.37Z"/>
      <path id="路径_3329" data-name="路径 3329" d="M31.09,59.36a1,1,0,0,1,.37,1.37l-1,1.73a1,1,0,1,1-1.73-1l1-1.73a1,1,0,0,1,1.36-.37Z"/>
      <path id="路径_3330" data-name="路径 3330" d="M26.1,54.38a1,1,0,0,1-.36,1.36l-1.74,1A1,1,0,0,1,23,55l1.74-1A1,1,0,0,1,26.1,54.38Z"/>
      <path id="路径_3331" data-name="路径 3331" d="M73.65,33.67h6a1,1,0,0,0,0-2h-6a1,1,0,1,0,0,2Z"/>
      <path id="路径_3332" data-name="路径 3332" d="M73.65,48.38h6a1,1,0,0,0,0-2h-6a1,1,0,0,0,0,2Z"/>
      <path id="路径_3333" data-name="路径 3333" d="M73.65,40.36h2.63a1,1,0,0,0,0-2H73.65a1,1,0,0,0,0,2Z"/>
      <path id="路径_3334" data-name="路径 3334" d="M73.65,56.4h2.63a1,1,0,0,0,0-2H73.65a1,1,0,0,0,0,2Z"/>
      <path id="路径_3335" data-name="路径 3335" d="M91.16,89a.5.5,0,0,0-.9-.44,5.31,5.31,0,0,0,0,4.44.5.5,0,0,0,.45.28.59.59,0,0,0,.22,0,.51.51,0,0,0,.23-.67,4.38,4.38,0,0,1,0-3.61Z"/>
      <path id="路径_3336" data-name="路径 3336" d="M73.34,90.17a.5.5,0,1,0-.89-.45,5.29,5.29,0,0,0,0,4.45.49.49,0,0,0,.44.27.46.46,0,0,0,.23,0,.5.5,0,0,0,.22-.67,4.35,4.35,0,0,1,0-3.6Z"/>
      <path id="路径_3337" data-name="路径 3337" d="M82.37,73.82a.37.37,0,0,0-.16-.48.36.36,0,0,0-.48.16,3.78,3.78,0,0,0,0,3.16.37.37,0,0,0,.32.2.47.47,0,0,0,.16,0,.37.37,0,0,0,.16-.48A3.06,3.06,0,0,1,82.37,73.82Z"/>
      <path id="路径_3338" data-name="路径 3338" d="M74.74,78.85l-.83,1.22c-.61.91-6,9-6,12.37a6.82,6.82,0,0,0,6.81,6.82h0a6.81,6.81,0,0,0,6.81-6.82c0-3.41-5.37-11.46-6-12.37Zm3.4,17a4.75,4.75,0,0,1-3.4,1.41h0a4.82,4.82,0,0,1-4.81-4.82c0-1.86,2.68-6.66,4.81-10,2.13,3.33,4.81,8.13,4.81,10a4.79,4.79,0,0,1-1.41,3.41Z"/>
      <path id="路径_3339" data-name="路径 3339" d="M94.06,76.3l-.83-1.23L92.4,76.3c-.74,1.09-7.23,10.81-7.23,14.9a8.07,8.07,0,0,0,8.06,8.06h0a8.06,8.06,0,0,0,8.06-8.06C101.29,87.11,94.8,77.39,94.06,76.3Zm3.45,19.18a6,6,0,0,1-4.28,1.78h0a6.07,6.07,0,0,1-6.06-6.06c0-2.58,3.83-9.06,6.06-12.53,2.23,3.47,6.06,10,6.06,12.53A6,6,0,0,1,97.51,95.48Z"/>
      <path id="路径_3340" data-name="路径 3340" d="M88.74,75.5c0-2.55-4-8.55-4.46-9.23l-.62-.92-.62.92c-.46.68-4.47,6.68-4.47,9.23a5.09,5.09,0,1,0,10.17,0Zm-5.08,3.59a3.59,3.59,0,0,1-3.59-3.59c0-1.38,2-5,3.59-7.44,1.58,2.48,3.58,6.06,3.58,7.44a3.59,3.59,0,0,1-3.58,3.59Z"/>
      <rect id="矩形_1855" data-name="矩形 1855" width="120" height="120" transform="translate(0.5 0.5)" fill="none" stroke="#000" stroke-miterlimit="10" stroke-width="1" opacity="0"/>
      <path id="路径_3341" data-name="路径 3341" d="M43.08,55.38a10.06,10.06,0,0,1-1.61.88,9.78,9.78,0,0,1-1.79.55,9.17,9.17,0,0,1-1.91.19,9.3,9.3,0,0,1-1.91-.19,9.409,9.409,0,0,1-5.94-3.95A10,10,0,0,1,29,51.21a9.32,9.32,0,0,1-.75-3.7,10.06,10.06,0,0,1,.19-1.91A9.7,9.7,0,0,1,29,43.82a9.47,9.47,0,0,1,5-5,9.7,9.7,0,0,1,1.78-.56A10.06,10.06,0,0,1,37.77,38a9.32,9.32,0,0,1,3.7.75,10,10,0,0,1,1.61.87" fill="none" stroke="#000" stroke-linecap="round" stroke-miterlimit="10" stroke-width="2"/>
      <path id="路径_3342" data-name="路径 3342" d="M57.19,82.24a7.881,7.881,0,0,1-1.62-.17,7.661,7.661,0,0,1-1.5-.46,7.78,7.78,0,0,1-1.36-.74,7.87,7.87,0,0,1-1.18-1,8,8,0,0,1-1-1.18,8.45,8.45,0,0,1-.73-1.36,7.69,7.69,0,0,1-.47-1.5,8.18,8.18,0,0,1,0-3.22,7.58,7.58,0,0,1,.47-1.51,7.89,7.89,0,0,1,4.25-4.25,7.69,7.69,0,0,1,1.5-.47,7.879,7.879,0,0,1,1.62-.16,7.781,7.781,0,0,1,1.61.16,7.689,7.689,0,0,1,1.5.47,8.45,8.45,0,0,1,1.36.73,8,8,0,0,1,1.18,1,7.87,7.87,0,0,1,1,1.18,7.779,7.779,0,0,1,.74,1.36A7.55,7.55,0,0,1,65,72.63a7.78,7.78,0,0,1,.17,1.61" fill="none" stroke="#000" stroke-linecap="round" stroke-miterlimit="10" stroke-width="2"/>
      <path id="路径_3343" data-name="路径 3343" d="M71,66.11a16,16,0,0,0-4.1-4.6,16.748,16.748,0,0,0-1.73-1.15v-.11a.49.49,0,0,0,0-.12.41.41,0,0,0,0-.11.49.49,0,0,0,0-.12V28.55A7.78,7.78,0,0,0,65,26.9a8,8,0,0,0-2.18-4,7.34,7.34,0,0,0-1.18-1,7.78,7.78,0,0,0-1.36-.74,8.44,8.44,0,0,0-1.5-.47,8.53,8.53,0,0,0-1.61-.16,8.64,8.64,0,0,0-1.62.16,8.44,8.44,0,0,0-1.5.47,8.12,8.12,0,0,0-2.54,1.71,7.87,7.87,0,0,0-1.71,2.55,7.48,7.48,0,0,0-.47,1.5,7.78,7.78,0,0,0-.16,1.61V59.67a.49.49,0,0,0,0,.12v.11a.49.49,0,0,1,0,.12v.23a.37.37,0,0,1,0,.11,16.611,16.611,0,0,0-1.72,1.15A14.239,14.239,0,0,0,46,62.86a15.61,15.61,0,0,0-1.38,1.54,17.172,17.172,0,0,0-1.17,1.71A15.289,15.289,0,0,0,42.47,68a15.132,15.132,0,0,0-.7,2,14.47,14.47,0,0,0-.43,2.1,15.69,15.69,0,0,0-.15,2.19,16.28,16.28,0,0,0,.32,3.22,17,17,0,0,0,.93,3,16.159,16.159,0,0,0,1.48,2.71,15.86,15.86,0,0,0,1.95,2.37,16.38,16.38,0,0,0,2.37,2A15.21,15.21,0,0,0,51,89" fill="none" stroke="#000" stroke-linecap="round" stroke-miterlimit="10" stroke-width="2"/>
      <line id="直线_5" data-name="直线 5" y2="38.28" transform="translate(57.19 28.66)" fill="none" stroke="#000" stroke-miterlimit="10" stroke-width="2"/>
      <path id="路径_3344" data-name="路径 3344" d="M54.07,96.36a1,1,0,0,1-.77-1.63l45.34-56a1,1,0,1,1,1.55,1.26L54.85,96A1,1,0,0,1,54.07,96.36Z"/>
    </g>
  </g>
</svg>
