<svg xmlns="http://www.w3.org/2000/svg" xmlns:xlink="http://www.w3.org/1999/xlink" width="120" height="120" viewBox="0 0 120 120">
  <defs>
    <clipPath id="clip-path">
      <rect id="矩形_6" data-name="矩形 6" width="120" height="120" transform="translate(1766 540)" fill="#fff" stroke="#707070" stroke-width="1"/>
    </clipPath>
  </defs>
  <g id="蒙版组_6" data-name="蒙版组 6" transform="translate(-1766 -540)" clip-path="url(#clip-path)">
    <g id="_6" data-name="6" transform="translate(1765.5 539.5)">
      <path id="路径_3354" data-name="路径 3354" d="M63.34,77.43H34.5a2.25,2.25,0,0,1-2.25-2.25V41.42a2.25,2.25,0,0,1,2.25-2.25H86.27a2.25,2.25,0,0,1,2.25,2.25V63.69" fill="none" stroke="#000" stroke-linecap="round" stroke-miterlimit="10" stroke-width="2"/>
      <path id="路径_3355" data-name="路径 3355" d="M62.25,67.47a.72.72,0,0,1-.29-.06,6.61,6.61,0,0,1-3.2-2.91,6.68,6.68,0,1,1,12.41-1.88.75.75,0,0,1-1.47-.3,5.18,5.18,0,1,0-9.62,1.46A5.12,5.12,0,0,0,62.55,66a.74.74,0,0,1,.39,1,.75.75,0,0,1-.69.47Z"/>
      <path id="路径_3356" data-name="路径 3356" d="M60.63,70.7a.8.8,0,0,1-.3-.06A10.24,10.24,0,1,1,74.44,63.3a.75.75,0,0,1-.88.59A.76.76,0,0,1,73,63a8.74,8.74,0,1,0-16.21,2.46,8.61,8.61,0,0,0,4.17,3.8.76.76,0,0,1,.39,1,.75.75,0,0,1-.72.44Z"/>
      <path id="路径_3357" data-name="路径 3357" d="M91.21,77.58l-6.27-12a3,3,0,0,0-5.38.07,3.024,3.024,0,0,0-4.03.93,2.4,2.4,0,0,0-.16.27,3.05,3.05,0,0,0-3.1-.2,3,3,0,0,0-1,.83l-3.6-6.92a3.021,3.021,0,1,0-5.36,2.79L71.62,81.2l-2.14-.67a3,3,0,0,0-3.78,2l-.06.16a3,3,0,0,0,2,3.79l12.13,3.81a2.56,2.56,0,0,0,.64.12,5.22,5.22,0,0,0,.88.07,5.49,5.49,0,0,0,2.57-.63l4.2-2.19a7.45,7.45,0,0,0,3.16-10ZM80.68,88.65h-.1a1.16,1.16,0,0,1-.29,0L68.15,84.78a1.31,1.31,0,0,1-.74-.63,1.26,1.26,0,0,1-.08-1v-.14a1.266,1.266,0,0,1,1.22-.89,1.19,1.19,0,0,1,.37.06l6.18,1.94L63.88,62.55a1.24,1.24,0,0,1-.09-1,1.3,1.3,0,0,1,.63-.75,1.27,1.27,0,0,1,1-.08,1.23,1.23,0,0,1,.74.62l8.5,16.3,1.55-.8-3.63-7v-.09a1.261,1.261,0,0,1,2.28-1.08l3.63,7,1.66-.87-3.14-6a1.3,1.3,0,0,1,.53-1.75,1.27,1.27,0,0,1,1.71.54l3.14,6,1.6-.83-2.76-5.28a1.27,1.27,0,0,1-.09-1,1.23,1.23,0,0,1,.62-.74,1.26,1.26,0,0,1,1.71.53l6.27,12a5.69,5.69,0,0,1-2.42,7.67L83,88.27a3.79,3.79,0,0,1-2.32.38Z"/>
      <rect id="矩形_1857" data-name="矩形 1857" width="120" height="120" transform="translate(0.5 0.5)" fill="none" stroke="#000" stroke-miterlimit="10" stroke-width="1" opacity="0"/>
    </g>
  </g>
</svg>
